<svg xmlns="http://www.w3.org/2000/svg" viewBox="0 0 400 220" width="100%" height="auto">
  <rect x="15" y="15" width="370" height="190" fill="#0a0a0a" stroke="#333333" stroke-width="3"/>

  <path d="M 5,25 L 25,25 M 25,5 L 25,25" stroke="#333333" stroke-width="2" fill="none"/>
  <path d="M 395,25 L 375,25 M 375,5 L 375,25" stroke="#333333" stroke-width="2" fill="none"/>
  <path d="M 5,195 L 25,195 M 25,215 L 25,195" stroke="#333333" stroke-width="2" fill="none"/>
  <path d="M 395,195 L 375,195 M 375,215 L 375,195" stroke="#333333" stroke-width="2" fill="none"/>

  <text font-family="'Courier New', Courier, monospace" font-size="11" font-weight="bold" fill="#8b949e" x="35" y="45">SPEC // 002</text>
  <text font-family="'Helvetica Neue', Helvetica, Arial, sans-serif" font-size="22" font-weight="900" fill="#f4f4f0" x="35" y="75">EDITORIAL PORTFOLIO</text>

  <text font-family="'Helvetica Neue', Helvetica, Arial, sans-serif" font-size="13" fill="#c9d1d9">
    <tspan x="35" y="105">Bauhaus-inspired web architecture.</tspan>
    <tspan x="35" dy="18">Fluid motion dynamics driven by GSAP</tspan>
    <tspan x="35" dy="18">anchored by Lenis smooth scroll.</tspan>
  </text>

  <rect x="35" y="160" width="135" height="22" rx="2" fill="#f4f4f0"/>
  <text font-family="'Courier New', Courier, monospace" font-size="11" font-weight="bold" fill="#0a0a0a" x="45" y="175">REACT / GSAP / CSS</text>

  <path d="M 320,158 v 24 M 324,158 v 24 M 328,158 v 24 M 335,158 v 24 M 338,158 v 24 M 344,158 v 24 M 348,158 v 24 M 355,158 v 24" stroke="#8b949e" stroke-width="2" stroke-linecap="square"/>
</svg>
