<svg xmlns="http://www.w3.org/2000/svg" viewBox="0 0 100 100" width="100" height="100">
  <style>
    .draw {
      fill: transparent; stroke: #336791; stroke-width: 2;
      stroke-dasharray: 400; stroke-dashoffset: 400;
      animation: drawPostgres 5s infinite cubic-bezier(0.64, 0, 0.78, 0);
    }
    @keyframes drawPostgres {
      0%, 5% { stroke-dashoffset: 400; fill: transparent; stroke-width: 2; opacity: 1;}
      25% { stroke-dashoffset: 0; fill: transparent; stroke-width: 2;}
      35%, 85% { fill: #336791; stroke-width: 0; opacity: 1;}
      90%, 100% { opacity: 0; fill: #336791; }
    }
  </style>
  
  <g>
    <path d="M 50 10 C 20 10 10 30 10 50 C 10 75 30 85 40 85 L 40 65 C 30 65 25 55 25 45 C 25 30 35 25 50 25 C 65 25 75 30 75 45 C 75 55 70 65 60 65 L 60 85 C 70 85 90 75 90 50 C 90 30 80 10 50 10 Z" class="draw" />
    <path d="M 40 40 L 60 40 L 60 75 C 60 85 55 95 50 95 C 45 95 40 85 40 75 Z" class="draw" />
    <path d="M 30 75 C 35 75 40 70 40 65 L 30 65 Z" class="draw" />
    <path d="M 70 75 C 65 75 60 70 60 65 L 70 65 Z" class="draw" />
  </g>
</svg>
